<svg width="82" height="80" viewBox="0 0 82 80" fill="none" xmlns="http://www.w3.org/2000/svg">
<rect width="37.6119" height="37.6119" rx="2.38806" fill="#FF304F"/>
<rect y="42.3881" width="37.6119" height="37.6119" rx="2.38806" fill="#FF304F"/>
<rect x="43.5821" width="37.6119" height="37.6119" rx="2.38806" fill="#FFF98C"/>
<rect x="43.5821" y="42.3881" width="37.6119" height="37.6119" rx="2.38806" fill="#FFF98C"/>
<path d="M23.7994 26.9331C23.188 27.4299 22.3857 27.7928 21.3922 28.0221C20.3988 28.2513 19.3003 28.366 18.0967 28.366C17.5045 28.366 16.6448 28.3564 15.5176 28.3373C14.4095 28.3182 13.0149 28.2896 11.3337 28.2513L11.1331 28.0507V8.76477L11.3337 8.56418C12.4418 8.52597 13.588 8.49731 14.7725 8.47821C15.9761 8.4591 17.237 8.44955 18.5552 8.44955C20.1791 8.44955 21.5355 8.70746 22.6245 9.22328C23.7134 9.7391 24.5827 10.446 25.2322 11.3439C25.8818 12.2418 26.3403 13.3021 26.6077 14.5248C26.8752 15.7284 27.0089 17.0275 27.0089 18.4221C27.0089 20.3325 26.7892 21.9851 26.3498 23.3797C25.9104 24.7743 25.0603 25.9588 23.7994 26.9331ZM18.5265 24.7839C21.0483 24.7839 22.3092 22.6633 22.3092 18.4221C22.3092 14.1618 21.0483 12.0316 18.5265 12.0316C17.9152 12.0316 17.3707 12.0316 16.8931 12.0316C16.4346 12.0316 16.0334 12.0221 15.6895 12.003V24.8125C16.0334 24.7934 16.4346 24.7839 16.8931 24.7839C17.3707 24.7839 17.9152 24.7839 18.5265 24.7839Z" fill="white"/>
<path d="M56.1098 50.9522C57.6573 50.914 58.9755 50.8854 60.0645 50.8663C61.1725 50.8472 62.0609 50.8376 62.7295 50.8376C64.8119 50.8376 66.4454 51.277 67.6298 52.1558C68.8334 53.0155 69.4352 54.3146 69.4352 56.0531C69.4352 56.8937 69.1964 57.677 68.7188 58.403C68.2412 59.129 67.6298 59.6543 66.8848 59.9791C67.3624 60.1319 67.8113 60.3803 68.2316 60.7242C68.671 61.049 69.0436 61.4406 69.3492 61.8991C69.6549 62.3385 69.8937 62.8257 70.0657 63.3606C70.2567 63.8764 70.3522 64.4113 70.3522 64.9654C70.3522 66.9331 69.7218 68.3946 68.4609 69.3499C67.2191 70.286 65.4519 70.754 63.1594 70.754C62.4525 70.754 61.5164 70.7445 60.351 70.7254C59.1857 70.7063 57.7719 70.6776 56.1098 70.6394L55.9092 70.4388V51.1528L56.1098 50.9522ZM62.8155 61.9564H60.437V67.5445C60.9337 67.5254 61.4877 67.5254 62.0991 67.5445C62.7295 67.5636 63.3122 67.5158 63.8471 67.4012C64.3821 67.2866 64.831 67.0096 65.194 66.5702C65.557 66.1307 65.7385 65.5194 65.7385 64.7361C65.7385 63.991 65.4997 63.3415 65.0221 62.7875C64.5636 62.2334 63.828 61.9564 62.8155 61.9564ZM60.437 54.0758V58.6896H62.4716C63.3886 58.6896 64.0286 58.4699 64.3916 58.0304C64.7737 57.5719 64.9648 57.0179 64.9648 56.3684C64.9648 55.7188 64.7737 55.1839 64.3916 54.7636C64.0095 54.3242 63.3695 54.1045 62.4716 54.1045C62.0322 54.1045 61.6406 54.1045 61.2967 54.1045C60.9719 54.1045 60.6854 54.0949 60.437 54.0758Z" fill="black"/>
</svg>
